<?xml version="1.0" encoding="utf-8"?>
<!-- Generator: Adobe Illustrator 25.2.1, SVG Export Plug-In . SVG Version: 6.00 Build 0)  -->
<svg version="1.1" id="Layer_1" xmlns="http://www.w3.org/2000/svg" xmlns:xlink="http://www.w3.org/1999/xlink" x="0px" y="0px"
	 viewBox="0 0 394.1 85.1" style="enable-background:new 0 0 394.1 85.1;" xml:space="preserve">
<style type="text/css">
	.st0{fill:#BEA97A;}
	.st1{fill:#0D0A0A;}
	.st2{fill:#8A7545;}
	.st3{fill:#060707;}
	.st4{fill:#090808;}
	.st5{fill:none;stroke:#B8A06F;stroke-width:1.44;stroke-miterlimit:10;}
	.st6{fill:none;stroke:#EFCE9D;stroke-width:1.8;stroke-miterlimit:10;}
	.st7{fill:none;stroke:#3D2E2E;stroke-width:1.8;stroke-miterlimit:10;}
	.st8{fill:none;stroke:#57472E;stroke-miterlimit:10;}
</style>
<g>
	<g>
		<rect y="0.9" class="st0" width="139.7" height="61.3"/>
		<rect x="139.7" y="0.9" class="st1" width="253.7" height="61.3"/>
		<rect y="62.2" class="st2" width="394.1" height="22.9"/>
		<g>
			<path class="st3" d="M197.2,67.8h3.3c0.6,0,1.1,0.1,1.6,0.2c0.5,0.1,0.9,0.3,1.2,0.6c0.3,0.3,0.6,0.6,0.8,1
				c0.2,0.4,0.3,0.8,0.3,1.4c0,0.5-0.1,1-0.3,1.4c-0.2,0.4-0.5,0.7-0.8,1c-0.3,0.3-0.8,0.4-1.2,0.6c-0.5,0.1-1,0.2-1.6,0.2h-2.1v5.4
				h-1.2V67.8z M198.4,73h2c0.9,0,1.6-0.2,2.1-0.5c0.5-0.4,0.7-0.9,0.7-1.6c0-0.7-0.2-1.2-0.7-1.6c-0.5-0.3-1.2-0.5-2.1-0.5h-2V73z"
				/>
			<path class="st3" d="M210.7,79.4h-1.2V67.8h3.4c0.6,0,1.1,0.1,1.6,0.2c0.5,0.1,0.9,0.3,1.3,0.5c0.4,0.2,0.6,0.6,0.8,1
				c0.2,0.4,0.3,0.9,0.3,1.4c0,0.4-0.1,0.8-0.2,1.2c-0.2,0.3-0.4,0.7-0.6,0.9c-0.3,0.3-0.6,0.5-0.9,0.6c-0.4,0.2-0.7,0.2-1.2,0.3
				l3.4,5.5h-1.4l-3.2-5.4h-2V79.4z M210.7,73h2c0.9,0,1.7-0.2,2.2-0.5s0.8-0.9,0.8-1.5c0-0.4-0.1-0.7-0.2-1
				c-0.1-0.3-0.3-0.5-0.6-0.6c-0.3-0.2-0.6-0.3-0.9-0.4c-0.4-0.1-0.8-0.1-1.2-0.1h-2.1V73z"/>
			<path class="st3" d="M233.6,73.6c0,0.9-0.2,1.7-0.5,2.4c-0.3,0.7-0.7,1.4-1.3,1.9c-0.5,0.5-1.2,1-1.9,1.3
				c-0.7,0.3-1.5,0.5-2.4,0.5c-0.9,0-1.7-0.2-2.4-0.5s-1.4-0.7-1.9-1.3c-0.5-0.5-1-1.2-1.3-1.9c-0.3-0.7-0.5-1.5-0.5-2.4
				c0-0.9,0.2-1.7,0.5-2.4c0.3-0.7,0.7-1.4,1.3-1.9c0.5-0.5,1.2-1,1.9-1.3s1.5-0.5,2.4-0.5c0.9,0,1.7,0.2,2.4,0.5
				c0.7,0.3,1.4,0.7,1.9,1.3c0.5,0.5,1,1.2,1.3,1.9C233.4,71.9,233.6,72.7,233.6,73.6z M232.3,73.6c0-0.7-0.1-1.3-0.3-1.9
				s-0.5-1.1-0.9-1.6c-0.4-0.5-0.9-0.8-1.5-1.1c-0.6-0.3-1.3-0.4-2-0.4c-0.7,0-1.4,0.1-2,0.4c-0.6,0.3-1.1,0.6-1.5,1.1
				c-0.4,0.5-0.7,1-0.9,1.6s-0.3,1.2-0.3,1.9c0,0.7,0.1,1.3,0.3,1.9s0.5,1.1,0.9,1.6c0.4,0.5,0.9,0.8,1.5,1.1c0.6,0.3,1.3,0.4,2,0.4
				c0.7,0,1.4-0.1,2-0.4c0.6-0.3,1.1-0.6,1.5-1.1c0.4-0.5,0.7-1,0.9-1.6S232.3,74.3,232.3,73.6z"/>
			<path class="st3" d="M248.6,77.5c-0.2,0.3-0.4,0.6-0.7,0.8c-0.3,0.3-0.6,0.5-1,0.7c-0.4,0.2-0.8,0.4-1.2,0.5
				c-0.4,0.1-0.9,0.2-1.4,0.2c-0.9,0-1.7-0.2-2.4-0.5c-0.7-0.3-1.4-0.7-1.9-1.3c-0.5-0.5-0.9-1.2-1.2-1.9c-0.3-0.7-0.4-1.5-0.4-2.4
				c0-0.9,0.2-1.7,0.5-2.4c0.3-0.7,0.7-1.4,1.3-1.9c0.5-0.5,1.2-1,1.9-1.3c0.7-0.3,1.5-0.5,2.4-0.5c0.4,0,0.8,0,1.2,0.1
				c0.4,0.1,0.8,0.2,1.2,0.4c0.4,0.2,0.7,0.4,1,0.6c0.3,0.2,0.5,0.5,0.7,0.8l-1,0.7c-0.1-0.2-0.3-0.4-0.5-0.6
				c-0.2-0.2-0.4-0.3-0.7-0.5c-0.3-0.1-0.6-0.3-0.9-0.3c-0.3-0.1-0.7-0.1-1-0.1c-0.8,0-1.4,0.1-2,0.4c-0.6,0.3-1.1,0.6-1.5,1.1
				c-0.4,0.5-0.7,1-0.9,1.6s-0.3,1.2-0.3,1.9c0,0.7,0.1,1.3,0.3,1.9c0.2,0.6,0.5,1.1,1,1.6c0.4,0.5,0.9,0.8,1.5,1.1
				c0.6,0.3,1.3,0.4,2,0.4c0.7,0,1.3-0.1,1.9-0.4c0.6-0.3,1.1-0.7,1.5-1.3L248.6,77.5z"/>
			<path class="st3" d="M254.7,78.3h6.2v1h-7.4V67.8h7.2v1h-6v4h5.6v1h-5.6V78.3z"/>
			<path class="st3" d="M271.6,69.7c-0.3-0.3-0.6-0.6-1-0.8c-0.4-0.2-0.9-0.3-1.4-0.3c-0.3,0-0.6,0-0.9,0.1
				c-0.3,0.1-0.6,0.2-0.8,0.4c-0.2,0.2-0.4,0.4-0.6,0.7c-0.1,0.3-0.2,0.6-0.2,1c0,0.4,0.1,0.7,0.2,0.9c0.1,0.2,0.3,0.4,0.6,0.6
				c0.2,0.2,0.5,0.3,0.8,0.4c0.3,0.1,0.6,0.2,0.9,0.3c0.4,0.1,0.8,0.3,1.2,0.4c0.4,0.2,0.8,0.4,1.1,0.6c0.3,0.2,0.6,0.6,0.8,0.9
				c0.2,0.4,0.3,0.9,0.3,1.4c0,0.6-0.1,1.1-0.3,1.5c-0.2,0.4-0.5,0.8-0.9,1c-0.4,0.3-0.8,0.5-1.2,0.6c-0.5,0.1-0.9,0.2-1.4,0.2
				c-0.3,0-0.7,0-1-0.1c-0.3-0.1-0.7-0.2-1-0.3c-0.3-0.1-0.6-0.3-0.9-0.5s-0.5-0.5-0.7-0.7l1-0.7c0.3,0.4,0.6,0.8,1.1,1
				s1,0.4,1.6,0.4c0.3,0,0.6,0,0.9-0.1c0.3-0.1,0.6-0.2,0.8-0.4c0.2-0.2,0.4-0.4,0.6-0.7c0.2-0.3,0.2-0.6,0.2-1c0-0.4-0.1-0.7-0.2-1
				c-0.2-0.3-0.4-0.5-0.6-0.7c-0.3-0.2-0.6-0.3-0.9-0.4c-0.3-0.1-0.7-0.2-1.1-0.4c-0.4-0.1-0.8-0.3-1.1-0.4c-0.4-0.2-0.7-0.4-1-0.6
				c-0.3-0.2-0.5-0.5-0.7-0.9c-0.2-0.4-0.3-0.8-0.3-1.3c0-0.6,0.1-1,0.3-1.4c0.2-0.4,0.5-0.7,0.9-1c0.4-0.3,0.8-0.5,1.2-0.6
				c0.4-0.1,0.9-0.2,1.3-0.2c0.8,0,1.5,0.1,2,0.4s1,0.6,1.3,1L271.6,69.7z"/>
			<path class="st3" d="M283.7,69.7c-0.3-0.3-0.6-0.6-1-0.8c-0.4-0.2-0.9-0.3-1.4-0.3c-0.3,0-0.6,0-0.9,0.1
				c-0.3,0.1-0.6,0.2-0.8,0.4c-0.2,0.2-0.4,0.4-0.6,0.7c-0.1,0.3-0.2,0.6-0.2,1c0,0.4,0.1,0.7,0.2,0.9c0.1,0.2,0.3,0.4,0.6,0.6
				c0.2,0.2,0.5,0.3,0.8,0.4c0.3,0.1,0.6,0.2,0.9,0.3c0.4,0.1,0.8,0.3,1.2,0.4c0.4,0.2,0.8,0.4,1.1,0.6c0.3,0.2,0.6,0.6,0.8,0.9
				c0.2,0.4,0.3,0.9,0.3,1.4c0,0.6-0.1,1.1-0.3,1.5c-0.2,0.4-0.5,0.8-0.9,1c-0.4,0.3-0.8,0.5-1.2,0.6c-0.5,0.1-0.9,0.2-1.4,0.2
				c-0.3,0-0.7,0-1-0.1c-0.3-0.1-0.7-0.2-1-0.3c-0.3-0.1-0.6-0.3-0.9-0.5s-0.5-0.5-0.7-0.7l1-0.7c0.3,0.4,0.6,0.8,1.1,1
				s1,0.4,1.6,0.4c0.3,0,0.6,0,0.9-0.1c0.3-0.1,0.6-0.2,0.8-0.4c0.2-0.2,0.4-0.4,0.6-0.7s0.2-0.6,0.2-1c0-0.4-0.1-0.7-0.2-1
				c-0.2-0.3-0.4-0.5-0.6-0.7c-0.3-0.2-0.6-0.3-0.9-0.4c-0.3-0.1-0.7-0.2-1.1-0.4c-0.4-0.1-0.8-0.3-1.1-0.4c-0.4-0.2-0.7-0.4-1-0.6
				c-0.3-0.2-0.5-0.5-0.7-0.9c-0.2-0.4-0.3-0.8-0.3-1.3c0-0.6,0.1-1,0.3-1.4c0.2-0.4,0.5-0.7,0.9-1c0.4-0.3,0.8-0.5,1.2-0.6
				c0.4-0.1,0.9-0.2,1.3-0.2c0.8,0,1.5,0.1,2,0.4s1,0.6,1.3,1L283.7,69.7z"/>
			<path class="st3" d="M291.4,79.4h-1.2V67.8h1.2V79.4z"/>
			<path class="st3" d="M305.5,77.6L305.5,77.6l0-9.8h1.2v11.5h-1.5l-6.7-9.9h0v9.9h-1.2V67.8h1.5L305.5,77.6z"/>
			<path class="st3" d="M321.4,69.9c-0.4-0.4-0.9-0.8-1.4-1c-0.6-0.2-1.2-0.4-1.9-0.4c-0.7,0-1.4,0.1-2,0.4
				c-0.6,0.3-1.1,0.6-1.5,1.1c-0.4,0.5-0.7,1-1,1.6s-0.3,1.2-0.3,1.9c0,0.7,0.1,1.3,0.3,1.9s0.5,1.1,1,1.6c0.4,0.5,0.9,0.8,1.5,1.1
				c0.6,0.3,1.3,0.4,2,0.4c0.7,0,1.3-0.1,1.8-0.2c0.5-0.1,1-0.3,1.3-0.5v-3.5h-2.7v-1h3.9v5.2c-0.6,0.4-1.3,0.7-2,0.9
				c-0.7,0.2-1.5,0.3-2.3,0.3c-0.9,0-1.7-0.2-2.4-0.5c-0.7-0.3-1.4-0.7-1.9-1.3c-0.5-0.5-0.9-1.2-1.2-1.9c-0.3-0.7-0.4-1.5-0.4-2.4
				c0-0.9,0.2-1.7,0.5-2.4c0.3-0.7,0.7-1.4,1.3-1.9c0.5-0.5,1.2-1,1.9-1.3s1.5-0.5,2.4-0.5c0.9,0,1.7,0.1,2.4,0.4s1.3,0.7,1.8,1.2
				L321.4,69.9z"/>
			<path class="st3" d="M339.4,79.7c-0.9,0-1.6-0.1-2.1-0.4c-0.6-0.3-1-0.7-1.3-1.1c-0.3-0.5-0.6-1-0.7-1.5c-0.1-0.5-0.2-1-0.2-1.5
				v-7.2h1.2v7.1c0,0.5,0.1,0.9,0.2,1.4c0.1,0.4,0.3,0.8,0.5,1.2c0.2,0.3,0.6,0.6,1,0.8c0.4,0.2,0.9,0.3,1.5,0.3
				c0.6,0,1.1-0.1,1.5-0.3c0.4-0.2,0.7-0.5,1-0.8c0.2-0.3,0.4-0.7,0.5-1.2c0.1-0.4,0.2-0.9,0.2-1.4v-7.1h1.2v7.2
				c0,0.5-0.1,1-0.2,1.5c-0.1,0.5-0.4,1-0.7,1.5c-0.3,0.5-0.8,0.8-1.3,1.1C341,79.5,340.3,79.7,339.4,79.7z"/>
			<path class="st3" d="M357.8,77.6L357.8,77.6l0-9.8h1.2v11.5h-1.5l-6.7-9.9h0v9.9h-1.2V67.8h1.5L357.8,77.6z"/>
			<path class="st3" d="M366.1,79.4h-1.2V67.8h1.2V79.4z"/>
			<path class="st3" d="M375.7,79.4h-1.2V68.9h-3.9v-1h8.9v1h-3.9V79.4z"/>
		</g>
		<g>
			<path class="st4" d="M12.8,42.9l19.5-22.7h-9.7l-2,5.7h-7.2V12.9h30.8v6.9L24,43.1h11.8l1.8-7.4h6.9v14.6H12.8V42.9z"/>
			<path class="st4" d="M54.8,16.9c3.6-3.1,8-4.7,13.2-4.7c5.2,0,9.7,1.6,13.3,4.7c4.4,3.8,6.7,8.9,6.7,14.7
				c0,5.8-2.3,10.9-6.7,14.7c-3.6,3.1-8.1,4.7-13.3,4.7c-5.2,0-9.7-1.6-13.2-4.7c-4.4-3.8-6.7-8.9-6.7-14.7
				C48.1,25.8,50.4,20.8,54.8,16.9z M68.1,42c5.5,0,9.7-4.2,9.7-10.4c0-6.2-4.3-10.4-9.7-10.4c-5.4,0-9.7,4.3-9.7,10.4
				C58.4,37.8,62.6,42,68.1,42z"/>
			<path class="st4" d="M90.9,42.9h3.8V20.4h-3.8v-7.5h17.8c5.2,0,8.9,0.6,11.2,1.8c6.6,3.5,9.7,8.8,9.7,16.9c0,8-3.1,13.4-9.7,16.9
				c-2.3,1.2-6,1.8-11.2,1.8H90.9V42.9z M104.7,42.9h2.9c7.7,0,11.7-3.8,11.7-11.2c0-7.4-4.1-11.2-11.7-11.2h-2.9V42.9z"/>
		</g>
		<g>
			<path class="st5" d="M254.4,42h12.4v8.3h-28.5v-5.5l17.2-16.3V18.5h-5.9v7.6h-10.9v-7.9c0-5,3-8,7.6-8h12.7c4.6,0,7.6,3,7.6,8
				v12.6L254.4,42z"/>
			<path class="st5" d="M297.5,50.3h-13.1c-4.6,0-7.6-3.1-7.6-8V18.2c0-5,3-8,7.6-8h13.1c4.6,0,7.7,3,7.7,8v24.1
				C305.2,47.3,302.1,50.3,297.5,50.3z M293.9,42V18.5H288V42H293.9z"/>
			<path class="st5" d="M330.8,42h12.4v8.3h-28.5v-5.5l17.2-16.3V18.5H326v7.6h-10.9v-7.9c0-5,3-8,7.6-8h12.7c4.6,0,7.6,3,7.6,8
				v12.6L330.8,42z"/>
			<path class="st5" d="M373.8,50.3h-13.1c-4.6,0-7.6-3.1-7.6-8V18.2c0-5,3-8,7.6-8h13.1c4.6,0,7.7,3,7.7,8v24.1
				C381.5,47.3,378.4,50.3,373.8,50.3z M370.2,42V18.5h-5.8V42H370.2z"/>
		</g>
	</g>
	<line class="st6" x1="0" y1="0.9" x2="139.7" y2="0.9"/>
	<line class="st7" x1="139.7" y1="0.9" x2="393.4" y2="0.9"/>
	<line class="st6" x1="138.3" y1="3.1" x2="138.3" y2="59.3"/>
	<line class="st8" x1="0" y1="62.2" x2="393.4" y2="62.2"/>
</g>
</svg>
